<?xml version="1.0" encoding="UTF-8" standalone="no"?>
<!-- Created with Inkscape (http://www.inkscape.org/) -->

<svg
   xmlns:dc="http://purl.org/dc/elements/1.1/"
   xmlns:cc="http://creativecommons.org/ns#"
   xmlns:rdf="http://www.w3.org/1999/02/22-rdf-syntax-ns#"
   xmlns:svg="http://www.w3.org/2000/svg"
   xmlns="http://www.w3.org/2000/svg"
   xmlns:xlink="http://www.w3.org/1999/xlink"
   xmlns:sodipodi="http://sodipodi.sourceforge.net/DTD/sodipodi-0.dtd"
   xmlns:inkscape="http://www.inkscape.org/namespaces/inkscape"
   width="210mm"
   height="297mm"
   viewBox="0 0 744.09448819 1052.3622047"
   id="svg2"
   version="1.1"
   inkscape:version="0.91 r13725"
   sodipodi:docname="ocaHi.svg"
   inkscape:export-filename="/Users/paulon/dev/oca/data/ocaHi.png"
   inkscape:export-xdpi="103.12606"
   inkscape:export-ydpi="103.12606">
  <defs
     id="defs4">
    <linearGradient
       inkscape:collect="always"
       id="linearGradient4222">
      <stop
         style="stop-color:#f2f6fa;stop-opacity:1;"
         offset="0"
         id="stop4224" />
      <stop
         style="stop-color:#f2f6fa;stop-opacity:0;"
         offset="1"
         id="stop4226" />
    </linearGradient>
    <linearGradient
       inkscape:collect="always"
       id="linearGradient4765">
      <stop
         style="stop-color:#f59f83;stop-opacity:1"
         offset="0"
         id="stop4767" />
      <stop
         id="stop4769"
         offset="1"
         style="stop-color:#cc2c2c;stop-opacity:1" />
      <stop
         style="stop-color:#52e295;stop-opacity:0"
         offset="1"
         id="stop4771" />
    </linearGradient>
    <linearGradient
       inkscape:collect="always"
       id="linearGradient4719">
      <stop
         style="stop-color:#f5dd83;stop-opacity:1"
         offset="0"
         id="stop4721" />
      <stop
         id="stop4723"
         offset="1"
         style="stop-color:#e39e15;stop-opacity:1" />
      <stop
         style="stop-color:#52e295;stop-opacity:0"
         offset="1"
         id="stop4725" />
    </linearGradient>
    <linearGradient
       id="linearGradient4675"
       inkscape:collect="always">
      <stop
         id="stop4677"
         offset="0"
         style="stop-color:#83c0f5;stop-opacity:1" />
      <stop
         style="stop-color:#2c2ccc;stop-opacity:1"
         offset="1"
         id="stop4679" />
      <stop
         id="stop4681"
         offset="1"
         style="stop-color:#52e295;stop-opacity:0" />
    </linearGradient>
    <linearGradient
       inkscape:collect="always"
       id="linearGradient4159">
      <stop
         style="stop-color:#79f4bc;stop-opacity:1"
         offset="0"
         id="stop4161" />
      <stop
         id="stop4171"
         offset="1"
         style="stop-color:#44b464;stop-opacity:1" />
      <stop
         style="stop-color:#52e295;stop-opacity:0"
         offset="1"
         id="stop4163" />
    </linearGradient>
    <radialGradient
       inkscape:collect="always"
       xlink:href="#linearGradient4159"
       id="radialGradient4165"
       cx="424.12335"
       cy="319.98651"
       fx="424.12335"
       fy="319.98651"
       r="213.87994"
       gradientTransform="matrix(2.6571327,0.06725661,-0.02670763,0.8385141,-793.00987,165.95159)"
       gradientUnits="userSpaceOnUse" />
    <filter
       inkscape:collect="always"
       style="color-interpolation-filters:sRGB"
       id="filter4645"
       x="-0.011184176"
       width="1.0223684"
       y="-0.033743224"
       height="1.0674864">
      <feGaussianBlur
         inkscape:collect="always"
         stdDeviation="1.8055759"
         id="feGaussianBlur4647" />
    </filter>
    <radialGradient
       inkscape:collect="always"
       xlink:href="#linearGradient4675"
       id="radialGradient4673"
       cx="242.94983"
       cy="224.86806"
       fx="242.94983"
       fy="224.86806"
       r="5.3501816"
       gradientUnits="userSpaceOnUse"
       gradientTransform="translate(-12.718666,0.03181999)" />
    <radialGradient
       inkscape:collect="always"
       xlink:href="#linearGradient4675"
       id="radialGradient4689"
       gradientUnits="userSpaceOnUse"
       gradientTransform="translate(47.281334,0.03181999)"
       cx="242.94983"
       cy="224.86806"
       fx="242.94983"
       fy="224.86806"
       r="5.3501816" />
    <radialGradient
       inkscape:collect="always"
       xlink:href="#linearGradient4675"
       id="radialGradient4693"
       gradientUnits="userSpaceOnUse"
       gradientTransform="translate(107.28133,1.0899606)"
       cx="242.94983"
       cy="224.86806"
       fx="242.94983"
       fy="224.86806"
       r="5.3501816" />
    <radialGradient
       inkscape:collect="always"
       xlink:href="#linearGradient4675"
       id="radialGradient4697"
       gradientUnits="userSpaceOnUse"
       gradientTransform="translate(173.61971,36.385392)"
       cx="242.94983"
       cy="224.86806"
       fx="242.94983"
       fy="224.86806"
       r="5.3501816" />
    <radialGradient
       inkscape:collect="always"
       xlink:href="#linearGradient4719"
       id="radialGradient4707"
       gradientUnits="userSpaceOnUse"
       gradientTransform="translate(-12.718666,65.889436)"
       cx="242.94983"
       cy="224.86806"
       fx="242.94983"
       fy="224.86806"
       r="5.3501816" />
    <radialGradient
       inkscape:collect="always"
       xlink:href="#linearGradient4719"
       id="radialGradient4709"
       gradientUnits="userSpaceOnUse"
       gradientTransform="translate(57.281334,65.889436)"
       cx="242.94983"
       cy="224.86806"
       fx="242.94983"
       fy="224.86806"
       r="5.3501816" />
    <radialGradient
       inkscape:collect="always"
       xlink:href="#linearGradient4719"
       id="radialGradient4717"
       gradientUnits="userSpaceOnUse"
       gradientTransform="translate(127.28133,65.889436)"
       cx="242.94983"
       cy="224.86806"
       fx="242.94983"
       fy="224.86806"
       r="5.3501816" />
    <radialGradient
       inkscape:collect="always"
       xlink:href="#linearGradient4765"
       id="radialGradient4750"
       gradientUnits="userSpaceOnUse"
       gradientTransform="translate(-12.718666,-578.72109)"
       cx="242.94983"
       cy="224.86806"
       fx="242.94983"
       fy="224.86806"
       r="5.3501816" />
    <radialGradient
       inkscape:collect="always"
       xlink:href="#linearGradient4765"
       id="radialGradient4754"
       gradientUnits="userSpaceOnUse"
       gradientTransform="translate(47.281334,-578.72109)"
       cx="242.94983"
       cy="224.86806"
       fx="242.94983"
       fy="224.86806"
       r="5.3501816" />
    <radialGradient
       inkscape:collect="always"
       xlink:href="#linearGradient4765"
       id="radialGradient4756"
       gradientUnits="userSpaceOnUse"
       gradientTransform="translate(107.28133,-577.16334)"
       cx="242.94983"
       cy="224.86806"
       fx="242.94983"
       fy="224.86806"
       r="5.3501816" />
    <radialGradient
       inkscape:collect="always"
       xlink:href="#linearGradient4765"
       id="radialGradient4758"
       gradientUnits="userSpaceOnUse"
       gradientTransform="translate(173.61971,-542.66739)"
       cx="242.94983"
       cy="224.86806"
       fx="242.94983"
       fy="224.86806"
       r="5.3501816" />
    <radialGradient
       inkscape:collect="always"
       xlink:href="#linearGradient4675"
       id="radialGradient4780"
       gradientUnits="userSpaceOnUse"
       gradientTransform="translate(271.64164,64.663408)"
       cx="242.94983"
       cy="224.86806"
       fx="242.94983"
       fy="224.86806"
       r="5.3501816" />
    <radialGradient
       inkscape:collect="always"
       xlink:href="#linearGradient4719"
       id="radialGradient4784"
       gradientUnits="userSpaceOnUse"
       gradientTransform="translate(223.68196,64.663384)"
       cx="242.94983"
       cy="224.86806"
       fx="242.94983"
       fy="224.86806"
       r="5.3501816" />
    <radialGradient
       inkscape:collect="always"
       xlink:href="#linearGradient4765"
       id="radialGradient4788"
       gradientUnits="userSpaceOnUse"
       gradientTransform="translate(247.66182,-514.39954)"
       cx="242.94983"
       cy="224.86806"
       fx="242.94983"
       fy="224.86806"
       r="5.3501816" />
    <radialGradient
       inkscape:collect="always"
       xlink:href="#linearGradient4222"
       id="radialGradient4228"
       cx="281.0054"
       cy="325.0769"
       fx="281.0054"
       fy="325.0769"
       r="15.177059"
       gradientTransform="matrix(2.5724473,-0.77666973,0.79645497,2.637979,-702.65426,-311.84453)"
       gradientUnits="userSpaceOnUse" />
    <radialGradient
       inkscape:collect="always"
       xlink:href="#linearGradient4222"
       id="radialGradient4230"
       cx="188.84393"
       cy="517.34021"
       fx="188.84393"
       fy="517.34021"
       r="15.176889"
       gradientTransform="matrix(2.8293543,-0.29747154,0.28976014,2.7560081,-496.25547,-852.22632)"
       gradientUnits="userSpaceOnUse" />
    <radialGradient
       inkscape:collect="always"
       xlink:href="#linearGradient4222"
       id="radialGradient4232"
       cx="237.45811"
       cy="326.37576"
       fx="237.45811"
       fy="326.37576"
       r="15.177059"
       gradientTransform="matrix(3.0506473,0.32672228,-0.30829034,2.8785456,-388.94319,-688.74346)"
       gradientUnits="userSpaceOnUse" />
  </defs>
  <sodipodi:namedview
     id="base"
     pagecolor="#ffffff"
     bordercolor="#666666"
     borderopacity="1.0"
     inkscape:pageopacity="0.0"
     inkscape:pageshadow="2"
     inkscape:zoom="1.2942037"
     inkscape:cx="199.42105"
     inkscape:cy="540.44574"
     inkscape:document-units="px"
     inkscape:current-layer="g5145"
     showgrid="false"
     showguides="true"
     inkscape:window-width="1440"
     inkscape:window-height="805"
     inkscape:window-x="0"
     inkscape:window-y="1"
     inkscape:window-maximized="1"
     inkscape:guide-bbox="true" />
  <metadata
     id="metadata7">
    <rdf:RDF>
      <cc:Work
         rdf:about="">
        <dc:format>image/svg+xml</dc:format>
        <dc:type
           rdf:resource="http://purl.org/dc/dcmitype/StillImage" />
        <dc:title />
      </cc:Work>
    </rdf:RDF>
  </metadata>
  <g
     inkscape:label="Layer 1"
     inkscape:groupmode="layer"
     id="layer1">
    <g
       id="g5145"
       transform="translate(49.054254,2.4942841)"
       inkscape:export-xdpi="343.75354"
       inkscape:export-ydpi="343.75354">
      <rect
         ry="0"
         y="342.29471"
         x="63.580624"
         height="240.99037"
         width="523.63098"
         id="rect4157"
         style="opacity:1;fill:url(#radialGradient4165);fill-opacity:1;stroke:none;stroke-width:20;stroke-miterlimit:4;stroke-dasharray:none;stroke-opacity:1"
         inkscape:export-xdpi="343.58218"
         inkscape:export-ydpi="343.58218" />
      <g
         transform="translate(-120.25002,185.78942)"
         id="g5110"
         inkscape:export-xdpi="343.58218"
         inkscape:export-ydpi="343.58218">
        <g
           id="g4330"
           style="stroke:#e6e6e6;stroke-opacity:1"
           transform="translate(-12,0)">
          <path
             style="fill:none;fill-rule:evenodd;stroke:#e6e6e6;stroke-width:12.5;stroke-linecap:butt;stroke-linejoin:miter;stroke-miterlimit:4;stroke-dasharray:none;stroke-opacity:1"
             d="m 234.87467,225.3622 110.25066,0 c 73.1676,0 80.47638,65.18608 170.19197,64.41863 l 107.0139,-0.91543"
             id="path4193"
             inkscape:connector-curvature="0"
             sodipodi:nodetypes="cssc" />
          <path
             sodipodi:nodetypes="cssc"
             inkscape:connector-curvature="0"
             id="path4195"
             d="m 234.87467,353.78449 110.25066,0 c 73.1676,0 80.47638,-65.18608 170.19197,-64.41863 l 107.0139,0.91543"
             style="fill:none;fill-rule:evenodd;stroke:#e6e6e6;stroke-width:12.5;stroke-linecap:butt;stroke-linejoin:miter;stroke-miterlimit:4;stroke-dasharray:none;stroke-opacity:1" />
          <path
             sodipodi:nodetypes="cssc"
             inkscape:connector-curvature="0"
             id="path4197"
             d="m 234.87467,290.59048 110.25066,0 c 73.1676,0 80.47638,-0.0422 170.19197,-0.80965 l 107.0139,-0.91543"
             style="fill:none;fill-rule:evenodd;stroke:#e6e6e6;stroke-width:12.5;stroke-linecap:butt;stroke-linejoin:miter;stroke-miterlimit:4;stroke-dasharray:none;stroke-opacity:1" />
        </g>
        <g
           id="g4307"
           style="opacity:0.85900005;stroke:#ffffff;filter:url(#filter4645)"
           transform="translate(-12,0)">
          <g
             transform="translate(1.1124506e-6,0)"
             style="stroke:#ffffff;stroke-width:3.4000001;stroke-linecap:round;stroke-miterlimit:4;stroke-dasharray:none;stroke-opacity:1"
             id="g4205">
            <path
               style="fill:none;fill-rule:evenodd;stroke:#ffffff;stroke-width:3.4000001;stroke-linecap:round;stroke-linejoin:miter;stroke-miterlimit:4;stroke-dasharray:none;stroke-opacity:1"
               d="m 236.87467,225.3622 108.25066,0 c 73.1676,0 80.47638,65.18608 170.19197,64.41863 l 107.0139,-0.91543"
               id="path4199"
               inkscape:connector-curvature="0"
               sodipodi:nodetypes="cssc" />
            <path
               sodipodi:nodetypes="cssc"
               inkscape:connector-curvature="0"
               id="path4201"
               d="m 236.87467,353.78449 108.25066,0 c 73.1676,0 80.47638,-65.18608 170.19197,-64.41863 l 107.0139,0.91543"
               style="fill:none;fill-rule:evenodd;stroke:#ffffff;stroke-width:3.4000001;stroke-linecap:round;stroke-linejoin:miter;stroke-miterlimit:4;stroke-dasharray:none;stroke-opacity:1" />
            <path
               sodipodi:nodetypes="cssc"
               inkscape:connector-curvature="0"
               id="path4203"
               d="m 236.87467,290.59048 108.25066,0 c 73.1676,0 80.47638,-0.0422 170.19197,-0.80965 l 107.0139,-0.91543"
               style="fill:none;fill-rule:evenodd;stroke:#ffffff;stroke-width:3.4000001;stroke-linecap:round;stroke-linejoin:miter;stroke-miterlimit:4;stroke-dasharray:none;stroke-opacity:1" />
          </g>
        </g>
        <text
           xml:space="preserve"
           style="font-style:normal;font-weight:normal;font-size:25px;line-height:125%;font-family:sans-serif;letter-spacing:0px;word-spacing:0px;fill:#ffffff;fill-opacity:1;stroke:none;stroke-width:1px;stroke-linecap:butt;stroke-linejoin:miter;stroke-opacity:1"
           x="222.45296"
           y="212.9606"
           id="text4649"
           sodipodi:linespacing="125%"><tspan
             sodipodi:role="line"
             id="tspan4651"
             x="222.45296"
             y="212.9606">web</tspan></text>
        <text
           sodipodi:linespacing="125%"
           id="text4653"
           y="275.29898"
           x="222.36877"
           style="font-style:normal;font-weight:normal;font-size:25px;line-height:125%;font-family:sans-serif;letter-spacing:0px;word-spacing:0px;fill:#ffffff;fill-opacity:1;stroke:none;stroke-width:1px;stroke-linecap:butt;stroke-linejoin:miter;stroke-opacity:1"
           xml:space="preserve"><tspan
             y="275.29898"
             x="222.36877"
             id="tspan4655"
             sodipodi:role="line">console</tspan></text>
        <g
           id="g4230"
           transform="matrix(1,0,0,-1,0,578.4532)">
          <circle
             r="5.3501816"
             cy="224.89989"
             cx="230.23117"
             id="path4665"
             style="opacity:0.85900005;fill:url(#radialGradient4673);fill-opacity:1;stroke:none;stroke-width:0.94850606;stroke-linecap:round;stroke-miterlimit:4;stroke-dasharray:none;stroke-opacity:1" />
          <circle
             r="5.3501816"
             cy="224.89989"
             cx="290.23117"
             id="circle4687"
             style="opacity:0.85900005;fill:url(#radialGradient4689);fill-opacity:1;stroke:none;stroke-width:0.94850606;stroke-linecap:round;stroke-miterlimit:4;stroke-dasharray:none;stroke-opacity:1" />
          <circle
             style="opacity:0.85900005;fill:url(#radialGradient4693);fill-opacity:1;stroke:none;stroke-width:0.94850606;stroke-linecap:round;stroke-miterlimit:4;stroke-dasharray:none;stroke-opacity:1"
             id="circle4691"
             cx="350.23117"
             cy="225.95801"
             r="5.3501816" />
          <circle
             r="5.3501816"
             cy="261.25345"
             cx="416.56955"
             id="circle4695"
             style="opacity:0.85900005;fill:url(#radialGradient4697);fill-opacity:1;stroke:none;stroke-width:0.94850606;stroke-linecap:round;stroke-miterlimit:4;stroke-dasharray:none;stroke-opacity:1" />
        </g>
        <circle
           r="5.3501816"
           cy="290.75751"
           cx="230.23117"
           id="circle4699"
           style="opacity:0.85900005;fill:url(#radialGradient4707);fill-opacity:1;stroke:none;stroke-width:0.94850606;stroke-linecap:round;stroke-miterlimit:4;stroke-dasharray:none;stroke-opacity:1" />
        <circle
           style="opacity:0.85900005;fill:url(#radialGradient4709);fill-opacity:1;stroke:none;stroke-width:0.94850606;stroke-linecap:round;stroke-miterlimit:4;stroke-dasharray:none;stroke-opacity:1"
           id="circle4701"
           cx="300.23117"
           cy="290.75751"
           r="5.3501816" />
        <circle
           style="opacity:0.85900005;fill:url(#radialGradient4717);fill-opacity:1;stroke:none;stroke-width:0.94850606;stroke-linecap:round;stroke-miterlimit:4;stroke-dasharray:none;stroke-opacity:1"
           id="circle4715"
           cx="370.23117"
           cy="290.75751"
           r="5.3501816" />
        <g
           id="g4236"
           transform="matrix(1,0,0,-1,0,578.95264)">
          <circle
             transform="scale(1,-1)"
             style="opacity:0.85900005;fill:url(#radialGradient4750);fill-opacity:1;stroke:none;stroke-width:0.94850606;stroke-linecap:round;stroke-miterlimit:4;stroke-dasharray:none;stroke-opacity:1"
             id="circle4740"
             cx="230.23117"
             cy="-353.85303"
             r="5.3501816" />
          <circle
             transform="scale(1,-1)"
             style="opacity:0.85900005;fill:url(#radialGradient4754);fill-opacity:1;stroke:none;stroke-width:0.94850606;stroke-linecap:round;stroke-miterlimit:4;stroke-dasharray:none;stroke-opacity:1"
             id="circle4744"
             cx="290.23117"
             cy="-353.85303"
             r="5.3501816" />
          <circle
             transform="scale(1,-1)"
             r="5.3501816"
             cy="-352.29529"
             cx="350.23117"
             id="circle4746"
             style="opacity:0.85900005;fill:url(#radialGradient4756);fill-opacity:1;stroke:none;stroke-width:0.94850606;stroke-linecap:round;stroke-miterlimit:4;stroke-dasharray:none;stroke-opacity:1" />
          <circle
             transform="scale(1,-1)"
             style="opacity:0.85900005;fill:url(#radialGradient4758);fill-opacity:1;stroke:none;stroke-width:0.94850606;stroke-linecap:round;stroke-miterlimit:4;stroke-dasharray:none;stroke-opacity:1"
             id="circle4748"
             cx="416.56955"
             cy="-317.79932"
             r="5.3501816" />
        </g>
        <circle
           r="5.3501816"
           cy="289.53146"
           cx="514.59149"
           id="circle4778"
           style="opacity:0.85900005;fill:url(#radialGradient4780);fill-opacity:1;stroke:none;stroke-width:0.94850606;stroke-linecap:round;stroke-miterlimit:4;stroke-dasharray:none;stroke-opacity:1" />
        <circle
           r="5.3501816"
           cy="289.53146"
           cx="466.63184"
           id="circle4782"
           style="opacity:0.85900005;fill:url(#radialGradient4784);fill-opacity:1;stroke:none;stroke-width:0.94850606;stroke-linecap:round;stroke-miterlimit:4;stroke-dasharray:none;stroke-opacity:1" />
        <circle
           transform="scale(1,-1)"
           style="opacity:0.85900005;fill:url(#radialGradient4788);fill-opacity:1;stroke:none;stroke-width:0.94850606;stroke-linecap:round;stroke-miterlimit:4;stroke-dasharray:none;stroke-opacity:1"
           id="circle4786"
           cx="490.61169"
           cy="-289.53146"
           r="5.3501816" />
        <path
           id="path5101"
           d="m 670.72861,204.29953 -55.01782,0 0,36.09722 8.50297,0 0,10.6691 14.8802,-10.6691 31.63465,0 z"
           inkscape:connector-curvature="0"
           style="fill:#ffffff"
           sodipodi:nodetypes="cccccccc" />
        <text
           xml:space="preserve"
           style="font-style:normal;font-weight:normal;font-size:33.47770691px;line-height:125%;font-family:sans-serif;letter-spacing:0px;word-spacing:0px;fill:#12630b;fill-opacity:1;stroke:none;stroke-width:1px;stroke-linecap:butt;stroke-linejoin:miter;stroke-opacity:1"
           x="620.62488"
           y="235.06985"
           id="text5047"
           sodipodi:linespacing="125%"><tspan
             sodipodi:role="line"
             id="tspan5049"
             x="620.62488"
             y="235.06985">Hi!</tspan></text>
        <g
           id="g4223"
           transform="matrix(0.9951851,-0.09801343,0.09801343,0.9951851,-29.941782,23.995592)"
           inkscape:transform-center-x="12.603654"
           inkscape:transform-center-y="-2.7301583">
          <path
             id="path4350"
             d="m 226.8516,339.67829 c -2.32166,-0.002 -2.65206,-0.0376 -3.01032,-0.31274 l -0.40243,-0.30918 0,-3.29735 -0.0496,-13.3104 -0.0496,-3.20611 0.40449,-0.40449 c 0.3993,-0.3993 0.43849,-0.40447 3.05992,-0.40447 1.4605,0 3.01951,-0.0781 3.46446,-0.17342 1.69655,-0.36384 2.08619,-1.73651 0.94182,-3.31789 -0.95096,-1.31412 -1.17454,-2.53386 -0.68098,-3.71512 0.58629,-1.40315 1.69043,-2.04264 3.53372,-2.04664 1.12398,-0.002 1.3855,0.0547 2.05601,0.4488 1.60582,0.94392 2.14607,2.68305 1.34267,4.32231 -0.23187,0.47309 -0.60247,1.10629 -0.82356,1.40712 -0.54004,0.73483 -0.53843,1.60028 0.004,2.24518 0.56107,0.66678 1.47595,0.82975 4.65806,0.82975 l 2.35067,0 0.41672,0.49526 c 0.41596,0.49434 0.41675,0.50097 0.41675,3.5176 0,2.88214 0.0172,3.04771 0.3682,3.5693 0.44953,0.66776 1.71498,1.17481 2.25834,1.05546 0.22361,-0.0492 0.78449,-0.3458 1.24637,-0.65928 2.01746,-1.36924 3.92505,-1.00864 4.89119,0.92463 0.59369,1.18801 0.59369,2.25446 0,3.44247 -0.96614,1.93327 -2.87373,2.29388 -4.89119,0.92463 -0.46188,-0.31348 -1.02276,-0.61016 -1.24637,-0.65927 -0.54336,-0.11944 -1.80881,0.38773 -2.25834,1.05545 -0.35111,0.5216 -0.3682,0.68716 -0.3682,3.56931 0,3.01663 -7.5e-4,3.02326 -0.41675,3.51759 l -0.41672,0.49527 -2.39884,0.006 z"
             style="fill:url(#radialGradient4232);fill-opacity:1;stroke:none;stroke-opacity:1"
             inkscape:connector-curvature="0"
             sodipodi:nodetypes="ccccccsscssccsccscssccssssccscccc" />
          <text
             sodipodi:linespacing="125%"
             id="text4657"
             y="335.31992"
             x="228.21378"
             style="font-style:normal;font-weight:normal;font-size:20.65035248px;line-height:125%;font-family:sans-serif;letter-spacing:0px;word-spacing:0px;fill:#0076b1;fill-opacity:1;stroke:none;stroke-width:1px;stroke-linecap:butt;stroke-linejoin:miter;stroke-opacity:1;"
             xml:space="preserve"><tspan
               y="335.31992"
               x="228.21378"
               id="tspan4659"
               sodipodi:role="line">e </tspan></text>
        </g>
        <g
           id="g4218"
           transform="translate(2,-2)">
          <path
             style="fill:url(#radialGradient4230);fill-opacity:1;stroke:none;stroke-opacity:1"
             d="m 184.86719,497.46484 c -1.84329,0.004 -2.94692,0.64373 -3.53321,2.04688 -0.49356,1.18126 -0.27127,2.40072 0.67969,3.71484 1.14437,1.58138 0.75515,2.95257 -0.9414,3.31641 -0.44495,0.0953 -2.00436,0.17383 -3.46485,0.17383 -2.62144,0 -2.65929,0.005 -3.05859,0.40429 l -0.4043,0.4043 0.0488,3.20703 c 0.0457,2.95664 0.0765,2.8089 0.38672,3.28125 0.38203,0.58168 1.03682,1.00023 2.50976,-0.1875 1.47751,-1.13034 3.89783,-1.35047 5.20313,0.14258 0.69742,0.79775 1.32031,2.27621 1.32031,3.37305 0,1.09359 -0.58508,2.60455 -1.31445,3.36328 -1.0377,1.07948 -3.14242,1.66427 -4.92774,0.22461 -1.47983,-1.19331 -2.31632,-1.08194 -2.79101,-0.25977 -0.31503,0.48093 -0.33789,0.28072 -0.33789,3.37305 l 0,0.008 -0.0488,0 -0.0488,3.20703 0.4043,0.4043 c 0.3993,0.3993 0.43715,0.4043 3.05859,0.4043 1.46049,0 3.0199,0.0785 3.46485,0.17382 1.69655,0.36384 2.08577,1.73503 0.9414,3.31641 -0.95096,1.31412 -1.17325,2.53358 -0.67969,3.71484 0.58629,1.40315 1.68992,2.04288 3.53321,2.04688 1.12398,0.002 1.38614,-0.0532 2.05664,-0.44727 1.60583,-0.94392 2.1452,-2.683 1.34179,-4.32226 -0.23187,-0.47309 -0.60117,-1.10737 -0.82226,-1.40821 -0.54003,-0.73482 -0.53851,-1.59924 0.004,-2.24414 0.56107,-0.66678 1.47609,-0.83007 4.6582,-0.83007 l 2.34961,0 0.41601,-0.4961 c 0.31799,-0.37791 0.3923,-0.49468 0.41016,-1.86523 0.006,-0.40797 0.008,-0.96107 0.008,-1.65235 0,-0.0417 0,-0.0567 0,-0.0996 0,-2.88215 0.0161,-3.04871 0.36719,-3.57031 0.44952,-0.66772 1.71641,-1.17413 2.25977,-1.05469 0.22362,0.0491 0.78421,0.34668 1.24609,0.66016 2.01746,1.36925 3.92448,1.00749 4.89062,-0.92578 0.59369,-1.18801 0.59369,-2.2534 0,-3.44141 -0.96614,-1.93327 -2.87316,-2.29502 -4.89062,-0.92578 -0.46188,0.31348 -1.02247,0.61096 -1.24609,0.66016 -0.54336,0.11935 -1.81025,-0.38888 -2.25977,-1.05664 -0.35101,-0.52159 -0.36719,-0.68622 -0.36719,-3.56836 0,-3.01663 -0.002,-3.02324 -0.41797,-3.51758 l -0.41601,-0.49609 -2.34961,0 c -3.18211,0 -4.09713,-0.1633 -4.6582,-0.83008 -0.54242,-0.6449 -0.54394,-1.50931 -0.004,-2.24414 0.22109,-0.30083 0.59039,-0.93511 0.82226,-1.4082 0.80341,-1.63926 0.26404,-3.37835 -1.34179,-4.32227 -0.6705,-0.3941 -0.93266,-0.44927 -2.05664,-0.44727 z"
             transform="translate(71.195766,-188.2837)"
             id="path4341"
             inkscape:connector-curvature="0" />
          <text
             xml:space="preserve"
             style="font-style:normal;font-weight:normal;font-size:20.65035248px;line-height:125%;font-family:sans-serif;letter-spacing:0px;word-spacing:0px;fill:#0076b1;fill-opacity:1;stroke:none;stroke-width:1px;stroke-linecap:butt;stroke-linejoin:miter;stroke-opacity:1;"
             x="254.61017"
             y="335.00836"
             id="text4357"
             sodipodi:linespacing="125%"><tspan
               sodipodi:role="line"
               id="tspan4359"
               x="254.61017"
               y="335.00836">t</tspan></text>
        </g>
        <g
           id="g4213"
           transform="matrix(0.98874318,0.14962255,-0.14962255,0.98874318,54.9743,-38.839549)">
          <path
             id="path4231"
             d="m 270.86809,339.67829 c -2.32166,-0.002 -2.65206,-0.0376 -3.01032,-0.31274 l -0.40243,-0.30918 0,-3.29735 c 0,-3.09233 0.0215,-2.89247 0.33643,-3.3734 0.47468,-0.82217 1.3125,-0.93328 2.79234,0.26003 1.78532,1.43966 3.88891,0.85455 4.92661,-0.22493 0.72936,-0.75873 1.31423,-2.26969 1.31423,-3.36328 0,-1.09684 -0.62145,-2.57456 -1.31887,-3.37231 -1.30529,-1.49305 -3.72604,-1.27251 -5.20355,-0.14217 -1.47295,1.18773 -2.12874,0.76903 -2.51076,0.18735 -0.31025,-0.47235 -0.3403,-0.32505 -0.38603,-3.28169 l -0.0496,-3.20611 0.40449,-0.40449 c 0.3993,-0.3993 0.43849,-0.40447 3.05992,-0.40447 1.4605,0 3.01951,-0.0781 3.46446,-0.17342 1.69655,-0.36384 2.08618,-1.73651 0.94182,-3.31789 -0.95097,-1.31412 -1.17455,-2.53386 -0.68098,-3.71512 0.58628,-1.40315 1.69043,-2.04264 3.53372,-2.04664 1.12398,-0.002 1.3855,0.0547 2.05601,0.4488 1.60582,0.94392 2.14607,2.68305 1.34266,4.32231 -0.23186,0.47309 -0.60246,1.10629 -0.82355,1.40712 -0.54004,0.73483 -0.53843,1.60028 0.004,2.24518 0.56106,0.66678 1.47595,0.82975 4.65806,0.82975 l 2.35067,0 0.41672,0.49526 c 0.41596,0.49434 0.41675,0.50097 0.41675,3.5176 0,2.88214 0.0172,3.04771 0.3682,3.5693 0.44952,0.66776 1.71497,1.17481 2.25833,1.05546 0.22362,-0.0492 0.7845,-0.3458 1.24637,-0.65928 2.01747,-1.36924 3.92505,-1.00864 4.8912,0.92463 0.59369,1.18801 0.59369,2.25446 0,3.44247 -0.96615,1.93327 -2.87373,2.29388 -4.8912,0.92463 -0.46187,-0.31348 -1.02275,-0.61016 -1.24637,-0.65927 -0.54336,-0.11944 -1.80881,0.38773 -2.25833,1.05545 -0.35112,0.5216 -0.3682,0.68716 -0.3682,3.56931 0,3.01663 -7.6e-4,3.02326 -0.41675,3.51759 l -0.41672,0.49527 -2.39884,0.006 z"
             style="fill:url(#radialGradient4228);fill-opacity:1;stroke:none;stroke-opacity:1"
             inkscape:connector-curvature="0"
             sodipodi:nodetypes="cccscssssccscsscssccsccscssccssssccscccc" />
          <text
             sodipodi:linespacing="125%"
             id="text4361"
             y="335.00836"
             x="276.6355"
             style="font-style:normal;font-weight:normal;font-size:20.65035248px;line-height:125%;font-family:sans-serif;letter-spacing:0px;word-spacing:0px;fill:#0076b1;fill-opacity:1;stroke:none;stroke-width:1px;stroke-linecap:butt;stroke-linejoin:miter;stroke-opacity:1;"
             xml:space="preserve"><tspan
               y="335.00836"
               x="276.6355"
               id="tspan4363"
               sodipodi:role="line">c</tspan></text>
        </g>
        <image
           sodipodi:absref="/Users/paulon/dev/oca/data/logo.png"
           xlink:href="logo.png"
           width="122.17508"
           height="71.166985"
           preserveAspectRatio="none"
           id="image4596"
           x="523.4881"
           y="244.16637" />
      </g>
    </g>
  </g>
</svg>
